# xmcd
#
# Track frame offsets: 
#        150
#        10685
#        27385
#        40722
#        55374
#        66060
#        77702
#        95082
#        106454
#        119024
#        129596
#        140149
#        156840
#        170179
#        184815
#        195513
#        207148
#        224540
#        235903
#        248456
#
# Disc length: 3451 seconds
#
# Revision: 0
# Processed by: cddbd v1.5.2PL0 Copyright (c) Steve Scherf et al.
# Submitted via: ExactAudioCopy v0.99pb4
#
DISCID=240d7914
DTITLE=Gauchinho de Cristo - Oração do Gaúcho
DYEAR=2006
DGENRE=Gospel
TTITLE0=Campeiro por Essência
TTITLE1=Oração do Gaúcho
TTITLE2=Amanhecer na Campanha
TTITLE3=Missionário
TTITLE4=Provisão de Deus
TTITLE5=Missão pelo Brasil
TTITLE6=Crente Valente
TTITLE7=Fogo no Altar
TTITLE8=Meu Rancho
TTITLE9=Salmos 51 Verso 10
TTITLE10=Campeiro por Essência (play-back)
TTITLE11=Oração do Gaúcho (play-back)
TTITLE12=Amanhecer na Campanha (play-back)
TTITLE13=Missionário (play-back)
TTITLE14=Provisão de Deus (play-back)
TTITLE15=Missão pelo Brasil (play-back)
TTITLE16=Crente Valente (play-back)
TTITLE17=Fogo no Altar (play-back)
TTITLE18=Meu Rancho (play-back)
TTITLE19=Salmos 51 Verso 10 (play-back)
EXTD=
EXTT0=
EXTT1=
EXTT2=
EXTT3=
EXTT4=
EXTT5=
EXTT6=
EXTT7=
EXTT8=
EXTT9=
EXTT10=
EXTT11=
EXTT12=
EXTT13=
EXTT14=
EXTT15=
EXTT16=
EXTT17=
EXTT18=
EXTT19=
PLAYORDER=
